<svg xmlns="http://www.w3.org/2000/svg" viewBox="0 0 32 32" width="20" height="20"><circle cx="16" cy="16" r="16" fill="#25D366"/><path d="M23.5 8.5c-1.6-1.6-3.7-2.5-6-2.5-4.7 0-8.5 3.8-8.5 8.5 0 1.5.4 2.9 1.1 4.2L8 24l5.4-1.4c1.2.6 2.5.9 3.9.9 4.7 0 8.5-3.8 8.5-8.5 0-2.3-.9-4.4-2.5-6zm-6 13c-1.2 0-2.4-.3-3.4-.8l-.2-.1-3.2.8.9-3.1-.1-.2c-.7-1.1-1.1-2.4-1.1-3.7 0-3.9 3.1-7 7-7 1.9 0 3.6.7 4.9 2.1 1.3 1.3 2.1 3.1 2.1 4.9 0 3.9-3.1 7-7 7zm3.7-5.3c-.2-.1-1.2-.6-1.4-.7-.2-.1-.3-.1-.5.1-.1.1-.6.7-.7.8-.1.1-.2.1-.4 0-.2-.1-.8-.3-1.5-.9-.5-.4-.9-1-1-1.1-.1-.2 0-.3.1-.4.1-.1.2-.2.3-.3.1-.1.1-.2.2-.3.1-.1.1-.2.2-.3.1-.1.1-.2.2-.3.1-.1.1-.2.1-.3 0-.1 0-.2-.1-.3-.1-.1-.5-1.2-.7-1.6-.2-.4-.4-.3-.5-.3-.1 0-.2 0-.3 0-.1 0-.3 0-.4.2-.1.2-.5.5-.5 1.2 0 .7.5 1.4.6 1.5.1.1.9 1.4 2.2 2.1 1.3.7 1.3.5 1.5.5.2 0 .7-.3.8-.5.1-.2.1-.4.1-.5 0-.1 0-.2-.1-.3z" fill="#fff"/></svg>
